<mxfile host="app.diagrams.net" modified="2024-06-14T11:00:02.932Z" agent="Mozilla/5.0 (X11; Linux x86_64) AppleWebKit/537.36 (KHTML, like Gecko) Chrome/125.0.0.0 Safari/537.36" etag="xfZKLPprqWIvpu7Zzjp6" version="24.5.4" type="github">
  <diagram name="Page-1" id="2YBvvXClWsGukQMizWep">
    <mxGraphModel dx="880" dy="479" grid="1" gridSize="10" guides="1" tooltips="1" connect="1" arrows="1" fold="1" page="1" pageScale="1" pageWidth="850" pageHeight="1100" math="0" shadow="0">
      <root>
        <mxCell id="0" />
        <mxCell id="1" parent="0" />
        <mxCell id="2dmpp8sBlBEj3byJu3uw-1" value="Raw input" style="rounded=1;whiteSpace=wrap;html=1;fillColor=#60a917;strokeColor=#2D7600;fontColor=#ffffff;" vertex="1" parent="1">
          <mxGeometry x="130" y="100" width="100" height="40" as="geometry" />
        </mxCell>
        <mxCell id="2dmpp8sBlBEj3byJu3uw-2" value="" style="shape=cylinder3;whiteSpace=wrap;html=1;boundedLbl=1;backgroundOutline=1;size=15;" vertex="1" parent="1">
          <mxGeometry x="460" y="85" width="40" height="55" as="geometry" />
        </mxCell>
        <mxCell id="2dmpp8sBlBEj3byJu3uw-3" style="edgeStyle=orthogonalEdgeStyle;rounded=0;orthogonalLoop=1;jettySize=auto;html=1;exitX=1;exitY=0.5;exitDx=0;exitDy=0;" edge="1" parent="1">
          <mxGeometry relative="1" as="geometry">
            <mxPoint x="451" y="120" as="targetPoint" />
            <mxPoint x="381" y="120" as="sourcePoint" />
          </mxGeometry>
        </mxCell>
        <mxCell id="2dmpp8sBlBEj3byJu3uw-4" value="" style="shape=image;html=1;verticalAlign=top;verticalLabelPosition=bottom;labelBackgroundColor=#ffffff;imageAspect=0;aspect=fixed;image=https://cdn0.iconfinder.com/data/icons/web-development-and-studio/512/46_Analysis_analytic_analytics_chart_data_graph-128.png;imageBackground=#000000;" vertex="1" parent="1">
          <mxGeometry x="300" y="85" width="70" height="70" as="geometry" />
        </mxCell>
        <mxCell id="2dmpp8sBlBEj3byJu3uw-5" value="DATA SPLITTING" style="rounded=1;whiteSpace=wrap;html=1;fillColor=#60a917;strokeColor=#2D7600;fontColor=#ffffff;" vertex="1" parent="1">
          <mxGeometry x="590" y="92.5" width="90" height="40" as="geometry" />
        </mxCell>
        <mxCell id="2dmpp8sBlBEj3byJu3uw-6" value="" style="shape=image;html=1;verticalAlign=top;verticalLabelPosition=bottom;labelBackgroundColor=#ffffff;imageAspect=0;aspect=fixed;image=https://cdn0.iconfinder.com/data/icons/web-development-and-studio/512/30_Graph_Analysis_analytic_analytics_chart_data-128.png;imageBackground=#000000;" vertex="1" parent="1">
          <mxGeometry x="630" y="268" width="48" height="48" as="geometry" />
        </mxCell>
        <mxCell id="2dmpp8sBlBEj3byJu3uw-7" value="" style="html=1;verticalLabelPosition=bottom;align=center;labelBackgroundColor=#ffffff;verticalAlign=top;strokeWidth=2;strokeColor=#0080F0;shadow=0;dashed=0;shape=mxgraph.ios7.icons.settings;" vertex="1" parent="1">
          <mxGeometry x="450" y="85" width="30" height="30" as="geometry" />
        </mxCell>
        <mxCell id="2dmpp8sBlBEj3byJu3uw-8" value="" style="sketch=0;outlineConnect=0;fontColor=#232F3E;gradientColor=none;fillColor=#ED7100;strokeColor=none;dashed=0;verticalLabelPosition=bottom;verticalAlign=top;align=center;html=1;fontSize=12;fontStyle=0;aspect=fixed;pointerEvents=1;shape=mxgraph.aws4.ec2_aws_microservice_extractor_for_net;" vertex="1" parent="1">
          <mxGeometry x="730" y="210" width="48" height="48" as="geometry" />
        </mxCell>
        <mxCell id="2dmpp8sBlBEj3byJu3uw-9" value="" style="sketch=0;outlineConnect=0;fontColor=#232F3E;gradientColor=none;fillColor=#01A88D;strokeColor=none;dashed=0;verticalLabelPosition=bottom;verticalAlign=top;align=center;html=1;fontSize=12;fontStyle=0;aspect=fixed;pointerEvents=1;shape=mxgraph.aws4.sagemaker_model;" vertex="1" parent="1">
          <mxGeometry x="387" y="240" width="53" height="53" as="geometry" />
        </mxCell>
        <mxCell id="2dmpp8sBlBEj3byJu3uw-10" value="" style="sketch=0;outlineConnect=0;fontColor=#232F3E;gradientColor=none;fillColor=#7AA116;strokeColor=none;dashed=0;verticalLabelPosition=bottom;verticalAlign=top;align=center;html=1;fontSize=12;fontStyle=0;aspect=fixed;pointerEvents=1;shape=mxgraph.aws4.iot_sitewise_asset_model;" vertex="1" parent="1">
          <mxGeometry x="260" y="390" width="78" height="78" as="geometry" />
        </mxCell>
        <mxCell id="2dmpp8sBlBEj3byJu3uw-11" value="Raw input" style="rounded=1;whiteSpace=wrap;html=1;fillColor=#60a917;strokeColor=#2D7600;fontColor=#ffffff;" vertex="1" parent="1">
          <mxGeometry x="390" y="410" width="100" height="40" as="geometry" />
        </mxCell>
        <mxCell id="2dmpp8sBlBEj3byJu3uw-12" value="" style="sketch=0;points=[[0,0,0],[0.25,0,0],[0.5,0,0],[0.75,0,0],[1,0,0],[0,1,0],[0.25,1,0],[0.5,1,0],[0.75,1,0],[1,1,0],[0,0.25,0],[0,0.5,0],[0,0.75,0],[1,0.25,0],[1,0.5,0],[1,0.75,0]];outlineConnect=0;fontColor=#232F3E;fillColor=#C925D1;strokeColor=#ffffff;dashed=0;verticalLabelPosition=bottom;verticalAlign=top;align=center;html=1;fontSize=12;fontStyle=0;aspect=fixed;shape=mxgraph.aws4.resourceIcon;resIcon=mxgraph.aws4.developer_tools;" vertex="1" parent="1">
          <mxGeometry x="349" y="70" width="38" height="38" as="geometry" />
        </mxCell>
        <mxCell id="2dmpp8sBlBEj3byJu3uw-13" style="edgeStyle=orthogonalEdgeStyle;rounded=0;orthogonalLoop=1;jettySize=auto;html=1;exitX=1;exitY=0.5;exitDx=0;exitDy=0;" edge="1" parent="1">
          <mxGeometry relative="1" as="geometry">
            <mxPoint x="580" y="120" as="targetPoint" />
            <mxPoint x="510" y="120" as="sourcePoint" />
          </mxGeometry>
        </mxCell>
        <mxCell id="2dmpp8sBlBEj3byJu3uw-14" style="edgeStyle=orthogonalEdgeStyle;rounded=0;orthogonalLoop=1;jettySize=auto;html=1;" edge="1" parent="1">
          <mxGeometry relative="1" as="geometry">
            <mxPoint x="640" y="260" as="targetPoint" />
            <mxPoint x="610" y="180" as="sourcePoint" />
          </mxGeometry>
        </mxCell>
      </root>
    </mxGraphModel>
  </diagram>
</mxfile>
